<svg id="EMAIL" xmlns="http://www.w3.org/2000/svg" width="41.211" height="28.332" viewBox="0 0 41.211 28.332">
  <g id="Group_3" data-name="Group 3" transform="translate(27.318 5.223)">
    <g id="Group_2" data-name="Group 2">
      <path id="Path_1" data-name="Path 1" d="M339.392,154.05l13.893,8.783V144.9Z" transform="translate(-339.392 -144.896)" fill="#fdda74"/>
    </g>
  </g>
  <g id="Group_5" data-name="Group 5" transform="translate(0 5.223)">
    <g id="Group_4" data-name="Group 4">
      <path id="Path_2" data-name="Path 2" d="M0,144.9v17.937l13.893-8.783Z" transform="translate(0 -144.896)" fill="#fdda74"/>
    </g>
  </g>
  <g id="Group_7" data-name="Group 7" transform="translate(0.077 0)">
    <g id="Group_6" data-name="Group 6">
      <path id="Path_3" data-name="Path 3" d="M39.518,80H3.458a2.544,2.544,0,0,0-2.5,2.192L21.488,95.717,42.017,82.192A2.544,2.544,0,0,0,39.518,80Z" transform="translate(-0.96 -80)" fill="#fdda74"/>
    </g>
  </g>
  <g id="Group_9" data-name="Group 9" transform="translate(0.082 15.931)">
    <g id="Group_8" data-name="Group 8">
      <path id="Path_4" data-name="Path 4" d="M25.9,277.923l-3.645,2.4a1.293,1.293,0,0,1-1.417,0l-3.645-2.4L1.024,288.148a2.54,2.54,0,0,0,2.493,2.174h36.06a2.54,2.54,0,0,0,2.493-2.174Z" transform="translate(-1.024 -277.92)" fill="#fdda74"/>
    </g>
  </g>
</svg>
