<svg id="home-address" xmlns="http://www.w3.org/2000/svg" width="31.644" height="43.835" viewBox="0 0 31.644 43.835">
  <path id="Path_21" data-name="Path 21" d="M81.294,73.01v8.7h3.164V76.174a.791.791,0,0,1,.791-.791H90a.791.791,0,0,1,.791.791v5.538h3.164v-8.7a.791.791,0,0,1,.791-.791h.839L87.622,66.1l-7.959,6.121H80.5A.791.791,0,0,1,81.294,73.01Zm0,0" transform="translate(-71.801 -59.562)" fill="#fdda74"/>
  <path id="Path_22" data-name="Path 22" d="M144.145,176h3.164v4.747h-3.164Zm0,0" transform="translate(-129.905 -158.596)" fill="#fdda74"/>
  <path id="Path_23" data-name="Path 23" d="M15.967,43.835c2.977-3.717,15.822-20.205,15.822-28.013a15.822,15.822,0,0,0-31.644,0C.145,23.632,12.99,40.119,15.967,43.835ZM5.2,12.824,15.485,4.913a.791.791,0,0,1,.965,0l10.284,7.911a.791.791,0,0,1-.482,1.415H23.878v8.7a.791.791,0,0,1-.791.791H8.847a.791.791,0,0,1-.791-.791v-8.7H5.683A.791.791,0,0,1,5.2,12.822Zm0,0" transform="translate(-0.145)" fill="#fdda74"/>
</svg>
