<svg id="linkedin" xmlns="http://www.w3.org/2000/svg" width="37.11" height="37.109" viewBox="0 0 37.11 37.109">
  <path id="Path_18" data-name="Path 18" d="M32.463,32.972v0h.009V19.361c0-6.658-1.433-11.787-9.217-11.787a8.08,8.08,0,0,0-7.278,4h-.108V8.2H8.489V32.971h7.685V20.7c0-3.23.612-6.353,4.612-6.353,3.941,0,4,3.686,4,6.561V32.972Z" transform="translate(4.637 4.137)" fill="#fdda74"/>
  <path id="Path_19" data-name="Path 19" d="M.4,7.977H8.09V32.752H.4Z" transform="translate(0.216 4.357)" fill="#fdda74"/>
  <path id="Path_20" data-name="Path 20" d="M4.456,0A4.477,4.477,0,1,0,8.913,4.456,4.458,4.458,0,0,0,4.456,0Z" fill="#fdda74"/>
</svg>
