<svg id="phone-call" xmlns="http://www.w3.org/2000/svg" width="37.278" height="37.356" viewBox="0 0 37.278 37.356">
  <g id="Group_10" data-name="Group 10" transform="translate(0 0)">
    <path id="Path_11" data-name="Path 11" d="M36.84,27.416,31.626,22.2a3.467,3.467,0,0,0-5.772,1.3,3.548,3.548,0,0,1-4.1,2.234c-3.724-.931-8.751-5.772-9.682-9.682a3.374,3.374,0,0,1,2.234-4.1,3.467,3.467,0,0,0,1.3-5.772L10.4.977a3.719,3.719,0,0,0-5.027,0L1.837,4.515C-1.7,8.239,2.209,18.106,10.96,26.857S29.578,39.7,33.3,35.98l3.538-3.538A3.718,3.718,0,0,0,36.84,27.416Z" transform="translate(-0.539 0)" fill="#fdda74"/>
  </g>
</svg>
